<svg xmlns="http://www.w3.org/2000/svg" xml:space="preserve" width="48" height="48" fill-rule="evenodd" clip-rule="evenodd" image-rendering="optimizeQuality" shape-rendering="geometricPrecision" text-rendering="geometricPrecision" viewBox="0 0 33.99 34.02"><defs><style>.fil4{fill:#00bcbc}.fil2{fill:#00bcf0}.fil3{fill:#00e485}</style></defs><g id="Слой_x0020_1"><g id="_1736623772960"><path fill="#0095d9" d="M8.74 7.39c-.26-.21-.65-.34-.78-.67-.15-.42.16-.78.6-.74.23.02.8.39.97.5.39.25.51.41.39.99-.21 1-.27 2.02-.95 1.99-.87-.04-.4-1.31-.23-2.07zm8.93 26.63-2.19-1.86c-.68-.65-1.4-1.38-1.98-2.22-1.06-1.53-2.19-3.41-2.7-5.63l-.2-.03c-1.99-.19-3.29-2.83-2.95-4.86.2-1.16 1.02-2.12 1.22-2.78.3-.99-.42-1.63 1.37-2.6-1.1-.41-1.69-.25-1.79-2.08-.03-.66.17-1.07.54-1.37.48-.4.86-.23 1.49-.42-.01-1.88-.24-1.25 1.26-2.41.72-.56 1.49-.93 1.82-1.9-.46.1-2.39.54-2.76.42-.5-2.01.82-2.93 1.79-3.71l2.1-1.69c.88-.72.49-.71 2.31.33 1.41.81 1.19.94 1.85-.16.15-.26.45-.62.48-.91-1.46 0-2.17-.3-4.21-.02-2.82.39-4.16.85-6.69 2.21-2.54 1.37-5.2 4.22-6.5 6.84C.84 11.36.44 12.73.11 15.13c-.22 1.62-.09 3.6.21 5.14.45 2.24 1.34 4.43 2.61 6.29 1.2 1.75 2.72 3.24 4.44 4.47 2.9 2.06 6.43 2.99 10.3 2.99z"/><path fill="#ffeeb8" d="M25.71 9.64c-.09.26-.25.48-.59.44-.34-.03-.42-.28-.61-.44-.25 0-.53-.03-.77.03-.23.05-.36.14-.63.19-.28.21-.68.56-1.01.76-.41.25-1.14.1-1.67.14-.4.78-.43.73-.04 1.6l1.51-.44c.44.35.75 1.7-1.15 2.33l-2.29.77c-.62.19-1.72-1.38-3.3-1.67-.95-.18-2.59.3-3.6.43l-.23.04-.14.06.07.04c-1.18 3.06-1.39 6.88-.5 10.27-.09.14.03.03-.16.09l.2.03c.33-.01.84-.06 1.08-.18.32-.5.64-1 .99-1.49s.74-.88 1.43-1.03c1.07-.21 3.59-.08 4.83-.08 1.77 0 3.2.28 4.09-.82.49-.61.58-.88 1.62-.71.64.11 1.52.16 2.1.32-.2-.44-3.93-5-4.17-5.51 1.58.35 1.81.81 2.58 1.82.66.87 1.28 1.67 1.91 2.55.5.7.77.46 1.34 0 .93-.73 1.87-1.25 2.04-2.35.06-.45.15-1.75-.13-2.04-.53-.31-1.83 1.39-2.17-1.51l3.47 1.07c-.14-1-.53-1.45-.46-2.72.04-.69.47-1.87.67-2.52.08-.22-.23-.61-.42-.92-.67-1.12-.84-1.24-1.55-2.17-.15-.19-.18-.3-.42-.37-.18.41-.48.9-.7 1.3-.23.42-.46.89-.71 1.29-.54.86-1.29 1.17-2.51 1.4z"/><path d="M26.94 20.32c.33.18.55.37 1.02.43 1.5.18 1.68-.72 1.3 1.47-.16.9-.12.77-.64 1.22l-1.88 1.78c-.26.29-.77.62-.97.89-.25.34-2.36 6.26-2.65 6.45-.79.5-2.4-.06-2.95-.45-1.92-1.37-1.53-3.76-1.62-5.67-1.98-.49-2.9-2.29-3.54-2.84l-3.13.53c-.24.12-.75.17-1.08.18.51 2.22 1.64 4.1 2.7 5.63.58.84 1.3 1.57 1.98 2.22l2.19 1.86c.32-.01.27-.05.54-.07 1.45-.1 1.75-.15 3.3-.55 2-.51 4.33-1.68 5.93-2.96.41-.33.8-.65 1.17-1.02.81-.82 1.38-1.3 2.1-2.35.33-.47.57-.82.88-1.32 1.14-1.91 2.03-4.29 2.28-6.61.15-1.33.13-2.37.07-3.66-.01-.29-.06-.23-.07-.51l-2.06-.62-3.47-1.07c.34 2.9 1.64 1.2 2.17 1.51.28.29.19 1.59.13 2.04-.17 1.1-1.11 1.62-2.04 2.35-.57.46-.84.7-1.34 0-.63-.88-1.25-1.68-1.91-2.55-.77-1.01-1-1.47-2.58-1.82.24.51 3.97 5.07 4.17 5.51z" class="fil2"/><path d="m11.88 24.13 3.13-.53c.64.55 1.56 2.35 3.54 2.84.09 1.91-.3 4.3 1.62 5.67.55.39 2.16.95 2.95.45.29-.19 2.4-6.11 2.65-6.45.2-.27.71-.6.97-.89l1.88-1.78c.52-.45.48-.32.64-1.22.38-2.19.2-1.29-1.3-1.47-.47-.06-.69-.25-1.02-.43-.58-.16-1.46-.21-2.1-.32-1.04-.17-1.13.1-1.62.71-.89 1.1-2.32.82-4.09.82-1.24 0-3.76-.13-4.83.08-.69.15-1.08.54-1.43 1.03-.35.49-.67.99-.99 1.49zM11.33 13.82l.23-.04c.37-.48.76-.42 1.09-1.19.12-.26.21-.53.32-.81.14-.35.24-.45.63-.57 1.55-.45 2.04 1.6 3.01 1.48.15-.3.1-.38.04-.79-.02-.15-.05-.32-.06-.47-.06-.65.3-.66.72-.24L19 12.71c.37 0 1.02-.25 1.39-.35-.39-.87-.36-.82.04-1.6-.52-.02-1.03-.25-.75-.84.19-.42.95-.29 1.51-.29.7 0 .69-.38 1.19-.59.58-.25.91.21.73.82.27-.05.4-.14.63-.19.24-.06.52-.03.77-.03-.13-.27-.31-.46-.49-.71-.27-.37-.87-1.06-.86-1.42.02-.3.29-.55.61-.52.39.04 1.94 2.16 1.94 2.65 1.22-.23 1.97-.54 2.51-1.4.25-.4.48-.87.71-1.29.22-.4.52-.89.7-1.3-.18-.25-1.22-1.28-1.5-1.5-.24-.19-1.48-1.21-1.76-1.28-.94.15-1.88.16-2.8.38-3.98.96-7.53 3.09-9.92 6.36-.76 1.05-1.9 2.8-2.32 4.21z" class="fil3"/><path d="m10.24 14.04.95-.16.14-.06c.42-1.41 1.56-3.16 2.32-4.21 2.39-3.27 5.94-5.4 9.92-6.36.92-.22 1.86-.23 2.8-.38l-.35-.26a17.78 17.78 0 0 0-2.82-1.43c-.85-.33-1.91-.64-2.83-.82-.28-.06-.85-.13-1.04-.22-.03.29-.33.65-.48.91-.66 1.1-.44.97-1.85.16C15.18.17 15.57.16 14.69.88l-2.1 1.69c-.97.78-2.29 1.7-1.79 3.71.37.12 2.3-.32 2.76-.42-.33.97-1.1 1.34-1.82 1.9-1.5 1.16-1.27.53-1.26 2.41-.63.19-1.01.02-1.49.42-.37.3-.57.71-.54 1.37.1 1.83.69 1.67 1.79 2.08z" class="fil4"/><path fill="#ffd682" d="M10.24 14.04c-1.79.97-1.07 1.61-1.37 2.6-.2.66-1.02 1.62-1.22 2.78-.34 2.03.96 4.67 2.95 4.86.19-.06.07.05.16-.09-.89-3.39-.68-7.21.5-10.27l-.07-.04-.95.16z"/><path d="M11.56 13.78c1.01-.13 2.65-.61 3.6-.43 1.58.29 2.68 1.86 3.3 1.67l2.29-.77c1.9-.63 1.59-1.98 1.15-2.33l-1.51.44c-.37.1-1.02.35-1.39.35l-1.69-1.52c-.42-.42-.78-.41-.72.24.01.15.04.32.06.47.06.41.11.49-.04.79-.97.12-1.46-1.93-3.01-1.48-.39.12-.49.22-.63.57-.11.28-.2.55-.32.81-.33.77-.72.71-1.09 1.19z" class="fil2"/><path d="m31.81 14.35 2.06.62c-.02-1.24-1.14-5.03-1.85-5.86-.2.65-.63 1.83-.67 2.52-.07 1.27.32 1.72.46 2.72z" class="fil3"/><path d="M8.97 9.46c.68.03.74-.99.95-1.99.12-.58 0-.74-.39-.99-.17-.11-.74-.48-.97-.5-.44-.04-.75.32-.6.74.13.33.52.46.78.67-.17.76-.64 2.03.23 2.07z" class="fil4"/><path d="M20.43 10.76c.53-.04 1.26.11 1.67-.14.33-.2.73-.55 1.01-.76.18-.61-.15-1.07-.73-.82-.5.21-.49.59-1.19.59-.56 0-1.32-.13-1.51.29-.28.59.23.82.75.84zM24.51 9.64c.19.16.27.41.61.44.34.04.5-.18.59-.44 0-.49-1.55-2.61-1.94-2.65a.564.564 0 0 0-.61.52c-.01.36.59 1.05.86 1.42.18.25.36.44.49.71z" class="fil2"/></g></g></svg>