<svg xmlns="http://www.w3.org/2000/svg" xml:space="preserve" fill-rule="evenodd" clip-rule="evenodd" image-rendering="optimizeQuality" shape-rendering="geometricPrecision" text-rendering="geometricPrecision" viewBox="0 0 198.86 198.86">
  <defs>
    <style>
      .fil0{fill:#fefefe}
    </style>
  </defs>
  <g id="Слой_x0020_1">
    <g id="_1830300456480">
      <path d="M62.14 99.43c0-4.12 1.05-8.58 2.18-11.81.91-2.61 3.37-7.94 5.2-9.17l9.53 9.51c1.23 1.19 2.14 2.22 3.29 3.31l11.89 11.8c.54.53.49.45.97.98.92 1.02.5.62 1.56 1.54.4.35.42.37.79.76l1.91 1.98c.05.06.13.14.18.2l3.53 3.47c.77.69.86.8 1.55 1.55l3.47 3.53c.06.05.15.13.21.18.05.05.14.13.2.18.06.06.14.13.2.19.37.35.45.45.77.78l4.46 4.47c1.61 1.54 5.98 5.55 6.37 7.23-1.34.36-2.99 1.67-4.27 2.34-10.29 5.4-21.32 5.46-31.96.88-8-3.44-15.2-10.64-18.65-18.64-1.71-3.99-3.38-9.76-3.38-15.26zM8.93 0h.2l189.73 189.92c-.97 1.44-7.88 8.55-9.33 8.94-.46-1.74-2.19-2.78-3.39-3.99l-19.97-20.03c-1.68-1.55-5.45-.84-9.65-.84H40.78c-6.16 0-23.54.64-28.22-.91C5.98 170.89 0 163.79 0 156.91V41.95c0-2.19.92-4.87 1.67-6.49 1.09-2.32 1.88-3.01 3.44-4.72.22-.24.32-.37.56-.61.1-.1.54-.51.6-.56 2.33-2.11 6.41-4.32 9.65-4.32-.44-1.67-2.58-3.17-3.78-4.37C9.57 18.31 1.12 10.22.09 8.64L8.93 0zm40.78 97.1c0 10.21.66 14.63 4.67 23.68 6.92 15.63 25.27 28.36 42.72 28.36 10.76 0 17.88-1.37 27.02-6.76 2.07-1.22 4.61-3.36 5.99-3.73.3 1.14.7 1.08 1.78 2.11l16.63 16.77c1.9 2.02 2.28 1.88 3.73 4.04H23.69c-4.96 0-11.26.6-11.26-7.38V44.66c0-8.82 7.45-7.37 15.15-7.37 1.15 0 4.51 3.84 5.59 4.89l11.01 10.74c2.5 2.5 14.93 14.58 16.02 16.21-.68 1.29-1.05 1.6-1.87 2.79-.72 1.06-1.1 1.71-1.8 2.87-1.28 2.12-2.37 4.23-3.27 6.43-1.71 4.19-3.55 10.11-3.55 15.88zm1.17-72.24c3.32 2.22 7.99 9.04 10.49 9.71 1.28-5.53 1.19-9.71 8.15-9.71h59.81c8.8 0 6.08 7.1 8.83 10.21 2.11 2.39 3.27 2.23 7.49 2.22h28.74c5.19 0 12.04-.9 12.04 7.37v109.92c0 2.14-.78 2.6-1.17 4.27l8.84 9.03c2.08-3.03 4.76-6.2 4.76-10.97V41.95c0-2.19-.92-4.87-1.68-6.49-1.42-3.04-3.34-4.97-5.82-6.99-2.26-1.85-6.17-3.48-9.2-3.62-10.88-.5-23.15.01-34.18.01-.42-5.01-8.75-12.43-15.93-12.43H66.8c-7.14 0-14.56 6.59-15.92 12.43z" class="fil0"/>
      <path d="m80.01 53.6 9.8 10c7.07-1.57 11-1.9 18.53-.27 5.19 1.12 10.66 4.15 14.27 7.09 8.46 6.89 14.1 17.53 14.1 28.62 0 3.55-.88 7.2-1.55 10.1l10.01 9.8c3.38-6.26 3.97-14.31 3.97-21.84 0-24.38-23-47.39-47.38-47.39-7.54 0-15.54.6-21.75 3.89zm81.56 1.55c0 9.4 12.43 9.4 12.43 0 0-2.82-2.7-5.44-6.99-5.44-2.43 0-5.44 3.02-5.44 5.44z" class="fil0"/>
    </g>
  </g>
</svg>
